<svg id="datasign" xmlns="http://www.w3.org/2000/svg" viewBox="0 0 1000 1000">
  <defs>
    <style>
      .cls-1 {
        fill: #fff;
      }
    </style>
  </defs>
  <title>datasign</title>
  <g>
    <g>
      <path class="cls-1" d="M542,968.82H457.73c-4.16-.63-8.31-1.64-12.5-1.85-57.12-2.87-113.49-10.64-168.69-25.85-48.5-13.36-95.13-31.06-134.69-63.32-31.09-25.36-52-56.71-52-98.42q-.23-278.36-.09-556.7c0-27,8.42-50.88,24.54-72.22,17.83-23.61,41.11-40.74,66.86-54.55,61.67-33.08,128.69-48.21,197.34-57a949.86,949.86,0,0,1,204.57-4C642.76,40.11,701.53,50,758.31,69.7c42.68,14.81,83.06,33.93,115.22,66.87,22.08,22.62,36.23,49.35,36.28,81.51.26,183.73-.37,367.47.46,551.2.21,45.72-18.23,80.48-52.39,108.53-29.4,24.13-63.3,39.93-98.93,52.26C702.14,949.74,643.43,960,583.69,965,569.78,966.16,555.88,967.54,542,968.82ZM517.41,353.89c20-1.56,58.7-3.5,97.12-7.87,52.22-5.93,103.31-17.54,151.79-38.5,25.58-11.06,50-24.19,68.62-45.82,22.22-25.87,22.15-54.39,0-80.16-18-20.9-41.43-33.75-66.09-44.7-52.92-23.49-109-34.9-166-41.37-84.69-9.61-169.25-7.87-253.32,7-48.17,8.52-95.15,21-138.71,44.12-18.46,9.79-35.56,21.41-48.62,38.07-19,24.27-18.74,51.69,1.23,75.17a133.48,133.48,0,0,0,20.48,19.49c28.76,22,62,34.8,96.28,45.08C351.41,345.79,424.66,352.76,517.41,353.89ZM148.66,494.34c-.28,2.48-.52,3.62-.52,4.77,0,34.79-.74,69.59.38,104.35.32,10.13,4.2,21.07,9.38,29.93,12.25,20.94,32.25,33.69,53.24,44.71,46.43,24.38,96.57,37.06,147.88,45.3a890.52,890.52,0,0,0,256.2,3.68c51.84-6.68,102.68-17.56,151-38.27,23.38-10,45.67-21.88,63.88-40.14,14.15-14.2,22.15-30.73,21.74-51.45-.62-31.42-.14-62.86-.18-94.29,0-2.54-.4-5.09-.72-8.9-24.42,23.09-52.19,38-81.79,49.84-57.42,22.91-117.6,33.89-178.73,39.7C501.24,592,412.42,589,324.52,571,261.09,558,199.7,539.6,148.66,494.34Zm-.57,174.83v8.93c0,29.61,1,59.26-.32,88.81-1.21,27.67,10.3,48.13,30.69,65.05,22.15,18.38,47.79,30.33,74.52,40.1,69.79,25.52,142.48,34.8,216.22,37.67a866.48,866.48,0,0,0,160.61-8.85c46.86-6.93,92.84-17.61,136.46-36.58,25.56-11.12,50-24.21,68.68-45.82,11.2-13,17-27.75,16.81-45.16-.38-31.13-.14-62.27-.15-93.4v-10.8c-20.58,19.38-42.43,33-66.15,43.54C714.8,744.19,639.74,756,563.39,761.5a905,905,0,0,1-182.69-5.39c-52.43-6.87-103.94-17.57-153.14-37.62C199,706.84,172.27,692,148.09,669.17ZM851.66,328.44c-20.68,11-40.19,22.88-60.91,32-70.61,31.19-145.68,43.63-222,49.13-85.58,6.16-170.69,1.68-254.79-16.19C262.5,382.48,212.63,366.88,167.37,339c-6.11-3.76-12.05-7.8-18.88-12.24-.18,3.52-.41,5.88-.42,8.23,0,28.68.53,57.37-.16,86-.51,21.09,7.72,37.79,22.16,52.18,18,18,40,29.85,63.12,39.63,66.53,28.14,136.81,39,208.25,43.89a885.19,885.19,0,0,0,171.67-5.26c52.78-6.71,104.49-17.73,153.64-38.7,22.24-9.49,43.43-20.87,61.13-37.77,15.69-15,24.66-32.54,23.94-55.11-.89-27.74-.18-55.52-.16-83.29Z"/>
      <path class="cls-1" d="M762.82,646.32c-16.5-.41-28.9-13.78-28.37-30.59.5-15.82,14.14-28.25,30.34-27.65s28.23,13.7,27.92,30.12A29,29,0,0,1,762.82,646.32Z"/>
      <path class="cls-1" d="M792.7,792.64a29.15,29.15,0,1,1-58.3.29,29.15,29.15,0,0,1,58.3-.29Z"/>
      <path class="cls-1" d="M763.5,470.55a29.15,29.15,0,1,1,29.26-28.87A29,29,0,0,1,763.5,470.55Z"/>
    </g>
    <g>
      <path class="cls-1" d="M686.33,118.83c6.9,2.82,7.93,6.5,2.56,9.74-6,3.63-16.84,4.21-27.32,1.42-72.09-19.18-149.5-24.25-232.06-14.71-36.83,4.26-69.87,11.59-98.91,21.86-8.84,3.12-18.28,3.54-25.93,1.26a21.05,21.05,0,0,1-2.21-.77c-5.24-2.14-6.9-5.4-3.75-8.37a23.5,23.5,0,0,1,4.05-2.61C354,109,411.07,98.68,476,96.11q112-4.42,206,21.28A38.46,38.46,0,0,1,686.33,118.83Z"/>
      <path class="cls-1" d="M454.73,69.88c10.76,4.67,4.76,11.21-10.45,13-23.93,2.73-48.42,5-71.33,8.79-66,11-117.89,29.24-157.38,53.51a36.43,36.43,0,0,1-11.64,4.43,35.36,35.36,0,0,1-19.68-1.67l-.66-.28c-5.71-2.51-6.55-6.38-1-9.46C199,129,216,120.05,232.73,111l1.82.53Q318.46,77.4,434.56,68C442.22,67.41,449.1,67.58,454.73,69.88Z"/>
      <path class="cls-1" d="M777.73,110.7q9,3.66,17.45,7.62c19.17,9,34.41,19.34,50.72,29.27,5.78,3.51,2.86,7.85-4.65,10.06a42.45,42.45,0,0,1-24.94-1.22c-3.66-2.44-8-5.48-12.68-8.42a343.86,343.86,0,0,0-52.36-26.58Q659.16,83.76,518.73,80.58c-6-.14-12.38-.29-16.31-1.9A7.49,7.49,0,0,1,499.74,77c-2.13-2.29-2.61-5.35-.69-7.63,2.46-2.91,9.61-4,17.58-4a905.9,905.9,0,0,1,110.73,7.81C685,80.91,735.45,93.41,777.73,110.7Z"/>
      <path class="cls-1" d="M274.53,149.22c7.46,3.05,8.33,7.44.85,10.44-26.43,10.59-54,20.58-85.85,28.51-12.67,3.16-26.42,2.45-41.28,3.42l10.16-15.41c18.42-1.38,31.41-6.18,44.61-10.54,15.8-5.21,30.48-11,45.52-16.61A37.73,37.73,0,0,1,274,149Z"/>
      <path class="cls-1" d="M415.21,138.75c8.66,3.57,7.73,9.47-3.19,11.82-29.08,6.25-50.5,16-72.88,25.44-36.68,15.42-75.28,29.85-122.08,40.14-18.38,4-37.93,5-58.11,5.07a33.76,33.76,0,0,1-12.44-2.08c-3-1.22-4.91-2.9-5.26-4.76-.72-4,4.82-7.13,14.22-8.07a39.24,39.24,0,0,1,5.08-.3c26.12.73,46.87-4.51,66.93-10.24A706.21,706.21,0,0,0,327,159.16q27.25-12.42,62.31-20.83C400,135.76,408.33,135.94,415.21,138.75Z"/>
      <path class="cls-1" d="M583.15,163.77c6.73,2.75,6.58,7.54-1,10.57-6.69,2.6-14.09,2.63-22.24,1.2a299.59,299.59,0,0,0-99.59-.78,208.93,208.93,0,0,0-45.85,12.69c-28.63,11.49-57.64,22.83-86.73,34.12-7.82,3-19.25,2.89-26.08.1l-.89-.39c-6.88-3.25-5.68-8.06,2.16-11.1,27-10.48,54.73-20.7,80.62-31.64,42.65-18,93.49-25.65,154.07-21.49,13.65.94,27,3,40,5.23A26.1,26.1,0,0,1,583.15,163.77Z"/>
      <path class="cls-1" d="M676.56,154.31c44.19,18.07,71,42.94,70.63,69.39,0,2.34-2.34,4.66-4,7.8-7.53.26-14.29,1.06-20.44.56a24.72,24.72,0,0,1-7.29-1.55c-3.12-1.28-4.75-3.16-5.17-5.27-1.13-5.63-1.2-11.34-3.79-16.85-8-17.09-28.06-31.94-55.92-43.34C607.23,147.33,545,138,479.71,141.58a78.45,78.45,0,0,1-18.06-1,23.32,23.32,0,0,1-4.24-1.23c-4-1.62-5.23-4-3.79-6.63,1.94-3.48,7.52-5.36,16.13-5.9a578.07,578.07,0,0,1,104,2.57C613.38,134.1,648.49,142.84,676.56,154.31Z"/>
      <path class="cls-1" d="M235,234.62a10.71,10.71,0,0,1,4.24,2.88c3.4,4.16-1.72,8.59-13.42,9.85-14.55,1.59-29.53,2.54-44.43,3.53-10.94.72-22,1.06-34.09,1.63-1.71-4.63-3.51-9.47-5.55-15,12.52-.61,24.39-1.06,36.15-1.79s23.67-1.47,35.2-2.71C222.09,232.06,230,232.59,235,234.62Z"/>
      <path class="cls-1" d="M571.31,196.49c35.5,14.51,39.08,36.32,6.93,51.6-7.49,3.56-15.33,7-23,10.48-8.55,3.31-16.73,6.78-25.17,10.13-8.82,3.49-19.75,3.63-27.56.48s-7.36-7.74,1.09-11.31c14.37-6.08,29.16-12,43.38-18.13,18.3-7.89,21.24-19.36,7.69-27.94a52,52,0,0,0-8.14-4.13c-15-6.11-36.6-8.49-56.21-5.21-10.21,1.7-18.82,5.12-27.71,8a39.71,39.71,0,0,1-21.47.95,29.26,29.26,0,0,1-4.64-1.39c-4-1.63-5.33-3.81-4.38-6.32.5-1.31,2.28-2.66,4.33-3.72,30.71-15.9,90.09-18.84,127.12-6.35Q567.65,195,571.31,196.49Z"/>
      <path class="cls-1" d="M384.37,230.87c7.45,3,7.51,8.3-2.11,11.29-26.64,8.26-53.36,16.56-81.51,23.91-38.62,10.09-81.47,15.32-127.67,15.38a14.45,14.45,0,0,1-4.59-.78,1.71,1.71,0,0,1-.57-.33c-4-4.11-7.57-8.3-11.75-13,7.62-.51,14-1.34,20.42-1.31,42.75.21,80.2-6.29,115-15.48,22.08-5.83,42.74-12.55,63.73-19,9.65-3,17.15-3.75,25.15-1.86A25.7,25.7,0,0,1,384.37,230.87Z"/>
      <path class="cls-1" d="M767.21,150.82c10.79,8.92,23.4,17.55,32,26.8,31,33.23,28.77,66.3-5.68,98.89-6.41,6.07-21.2,7.53-31.12,3.48a22.81,22.81,0,0,1-2.17-1c-5.18-2.78-4-5.64-.69-8.63,15.18-13.89,23.36-28.47,24-43.72,1-23-13.43-44.18-43.55-63.6-1.53-1-3.24-1.94-4.66-3-5.12-3.68-2.79-7.77,5.75-10.24a37.68,37.68,0,0,1,23.24,1.13l.72.3Z"/>
      <path class="cls-1" d="M521,218.13c8.07,3.29,7.23,8-1.78,11.89-40.15,17.29-81.53,34-128.83,48.09-51.43,15.31-106,27.75-170,32-6.61.44-11.39.22-15.17-1.32a14.7,14.7,0,0,1-3.57-2.1c-4.43-3.52-10.05-6.79-14.33-9.63,22.41-2,44.89-3.26,66.37-5.93,43.48-5.41,81.68-15.11,117.76-26.23a1021.22,1021.22,0,0,0,120.66-45.49C501,215.42,512.76,215,521,218.13Z"/>
      <path class="cls-1" d="M639.8,182.88a26.84,26.84,0,0,1,3.4,1.67c13.13,7.71,22.61,16.13,26.84,25.39,10.64,23.34-3.36,43.81-43.19,61.09-11.61,5-21.72,10.77-33.65,15.68h0c-32.58,11.46-65.09,23-97.81,34.37-8,2.78-18.36,2.48-25.23-.33-.52-.22-1-.44-1.5-.68-6.6-3.33-5.09-8,4-10.88C513.26,296.1,551,281.71,586.89,266.5c20.3-8.59,38.75-17.59,45.68-29.66,8.82-15.38,3-29.65-18.67-42.77-5.45-3.29-9.58-6.59-3.47-10.38C617.56,179.26,630.48,179.07,639.8,182.88Z"/>
      <path class="cls-1" d="M474.32,278.57c.39.16.78.33,1.16.51,6.62,3.17,5.84,8-2.23,10.73-43.12,14.59-88.6,27.75-139.91,37.11-19.54,3.56-40.09,6.19-60.12,9.3-4.68.73-8.11.41-11.61-1l-.47-.2c-3.3-1.44-6.69-2.85-10.2-4.29-5-2-10.22-4.12-15.86-6.43C286,320.07,330.91,312,372.36,301c26-7,50.64-14.84,75.59-22.48C456.93,275.74,467.06,275.6,474.32,278.57Z"/>
      <path class="cls-1" d="M404.43,334.83a14.15,14.15,0,0,1,3,1.65c4.85,3.59,2.91,8.17-6.24,10.17-18.13,4-36.9,7.42-55.49,11a16.61,16.61,0,0,1-5.63-.08c-12.41-2.86-24.67-5.82-36.93-8.74l79.62-15.29C390.62,332.05,399.05,332.63,404.43,334.83Z"/>
      <path class="cls-1" d="M880.77,188.24c3,1.21,5.07,2.91,6,5,19.13,42.92.85,82.75-58.31,119.11-6.81,4.19-14.38,8.18-22.12,12.09s-16.17,7.61-24.28,11.39a533.8,533.8,0,0,1-75.33,23.8c-8.37,2-16.68,1.52-22.93-1-5.61-2.29-7.3-5.91-3.36-8.77a26.85,26.85,0,0,1,8.21-3.44c118.51-31.55,174.93-76.17,167.1-134.26-.73-5.39-3.37-10.74-5.39-16.08s3.44-9,14.68-9.83C871.24,185.9,876.77,186.6,880.77,188.24Z"/>
      <path class="cls-1" d="M713.87,262.93c6,2.47,6.49,6.26.91,10.29-12.25,8.86-28.34,16.47-45.8,23.64l-22.46,9.24a1270,1270,0,0,1-152.11,52.56c-9.47,2.62-18.93,2.5-25.46-.17a18.6,18.6,0,0,1-2.49-1.23c-6.36-3.76-3.68-8.08,7.07-11.1a1305.67,1305.67,0,0,0,187.79-68.35c8.17-3.72,14.66-8.09,21.4-12.3,7.4-4.63,17.8-6.16,27.53-3.74A27.17,27.17,0,0,1,713.87,262.93Z"/>
      <path class="cls-1" d="M749.65,294.72c6.19,2.53,7.34,6.78,1.11,10-9.48,4.84-19.81,9.41-30.28,13.91Q658.76,345.14,588.69,368a96.72,96.72,0,0,1-29.17,5.16c-18.24.4-36.43,1.13-54.64,1.71l-.6-1C580,353.7,645.66,328.85,707.35,302.1c5.1-2.22,9.58-4.68,14.66-6.9,7.52-3.28,18.27-3.63,26.26-1Q749,294.45,749.65,294.72Z"/>
      <path class="cls-1" d="M433.47,363.91c4.33,1.77,5,4.54,1.78,7.66l-44-4.83c0-.35-.06-.7-.1-1.06,7.6-1.5,14.89-3.63,22.91-4.29a55.47,55.47,0,0,1,17.87,2C432.49,363.54,433,363.72,433.47,363.91Z"/>
    </g>
  </g>
</svg>
